# xmcd
#
# Track frame offsets:
#	150
#	21900
#	41025
#	63375
#
# Disc length: 1106 seconds
#
# Revision: 0
# Processed by: cddbd v1.5.2PL0 Copyright (c) Steve Scherf et al.
# Submitted via: EasyCDDAExtractor 4.6.9.1
#
DISCID=30045004
DTITLE=Plostin Punk feat. Carneval - Su - su - su
DYEAR=1995
DGENRE=Dance
TTITLE0=Su - su - su (dancefloor version)
TTITLE1=Barbi (dancefloor version)
TTITLE2=Aranka - Spanielka (dancefloor version)
TTITLE3=Totalita jednej zeny (rap version) - bonus
EXTD=http://www.aerosolart.sk
EXTT0=
EXTT1=
EXTT2=
EXTT3=
PLAYORDER=
